<?xml version="1.0" encoding="UTF-8"?>
<svg id="Layer_1" data-name="Layer 1" xmlns="http://www.w3.org/2000/svg" viewBox="0 0 1024 1024">
  <defs>
    <style>
      .cls-1 {
        fill: #f3f4f6;
      }
    </style>
  </defs>
  <path class="cls-1" d="m526.21,12.67l30.15,283.04c9.78,91.82,81,165.09,172.51,177.46l191.5,25.89c16.41,2.22,16.35,25.96-.07,28.1l-191.93,24.99c-92.22,12.01-164.07,85.84-173.57,178.35l-28.82,280.77c-1.74,16.96-26.45,16.97-28.2,0l-29.01-280.91c-9.55-92.45-81.38-166.21-173.53-178.22l-191.53-24.96c-16.42-2.14-16.47-25.89-.06-28.1l192.44-25.92c91.76-12.36,163.12-85.94,172.66-178.03L498.02,12.71c1.75-16.93,26.39-16.96,28.19-.04Z"/>
</svg>