<svg xmlns="http://www.w3.org/2000/svg" xmlns:xlink="http://www.w3.org/1999/xlink" width="45" height="45" viewBox="0 0 45 45" fill-rule="evenodd">
	<g style="stroke:none; fill:black;">
		<path d="M29,6.103515488575795e-7 L29,7.000000610351549 L29,7.000000610351549 C29,7.000000610351549 34.06560000000002,8.915000610351512 34,13.000000610351549 C33.93439999999998,17.08400061035161 29,18.00000061035155 29,18.00000061035155 L25,18.00000061035155 L25,25.00000061035155 L31,25.00000061035155 C31,25.00000061035155 35.9854,26.01000061035154 36,32.00000061035155 C36.0146,37.99000061035156 31,38.00000061035155 31,38.00000061035155 L29,38.00000061035155 L29,45.00000061035155 L34,45.00000061035155 C34,45.00000061035155 45.11410000000001,41.880000610351544 45,33.00000061035155 C44.898300000000006,25.081000610351566 38,21.00000061035155 38,21.00000061035155 C38,21.00000061035155 42.99369999999999,19.023000610351573 43,12.000000610351549 C43.00919999999999,1.8470006103515288 32,6.103515488575795e-7 32,6.103515488575795e-7 L29,6.103515488575795e-7 z"/>
		<path d="M0,6.103515488575795e-7 L0,45.00000061035155 L22,45.00000061035155 L22,38.00000061035155 L9,38.00000061035155 L9,25.00000061035155 L18,25.00000061035155 L18,18.00000061035155 L9,18.00000061035155 L9,7.000000610351549 L22,7.000000610351549 L22,6.103515488575795e-7 L0,6.103515488575795e-7 z"/>
	</g>
</svg>