<svg xmlns="http://www.w3.org/2000/svg" width="213" height="183" viewBox="0 0 213 183">
	<g style="stroke:none; fill:black;">
		<path d="M16.1926,140.07445930480958 C16.1926,140.07445930480958 14.2817,122.82745930480962 15.6528,111.46245930480961 C17.024,100.09845930480958 27.071300000000008,80.98745930480959 35.0839,71.51445930480952 C43.09649999999999,62.04245930480954 48.8043,57.33845930480959 57.7535,53.700459304809556 C66.7028,50.061459304809546 72.23140000000001,51.63245930480957 78.8039,52.08045930480955 C85.37639999999999,52.52845930480953 96.101,49.75845930480955 102.013,49.381459304809596 C107.92599999999999,49.00445930480953 117.482,50.245459304809515 124.68299999999999,52.620459304809515 C131.884,54.995459304809515 138.397,56.90445930480962 144.654,60.17845930480962 C150.91,63.45145930480953 163.984,73.79045930480959 166.784,76.37345930480956 C169.584,78.95645930480953 174.561,86.62045930480951 175.42,88.24945930480953 C176.278,89.87945930480953 177.118,101.08445930480957 177.579,105.52445930480962 C178.04,109.96445930480957 183.51599999999996,127.11745930480959 183.51599999999996,127.11745930480959 L201.32799999999997,150.87045930480951 L211.043,147.09145930480952 C211.043,147.09145930480952 212.757,132.44945930480958 212.663,130.89645930480958 C212.56799999999998,129.34445930480956 213.462,125.37045930480951 212.663,121.71945930480956 C211.863,118.06845930480961 211.235,112.51845930480954 209.964,109.30345930480962 C208.69299999999998,106.08845930480959 207.22500000000002,103.70045930480956 206.72500000000002,100.66545930480959 C206.226,97.6314593048096 206.827,92.61045930480952 205.64599999999996,88.24945930480953 C204.464,83.88945930480952 203.454,79.0304593048096 200.788,75.29345930480952 C198.123,71.55645930480955 192.52300000000002,65.51945930480952 192.152,63.95745930480962 C191.781,62.394459304809516 191.37599999999998,58.485459304809524 189.993,55.85945930480955 C188.61,53.23345930480957 182.118,48.85045930480953 179.198,44.52245930480956 C176.278,40.19545930480956 170.655,38.57745930480962 166.244,34.805459304809574 C161.832,31.034459304809616 155.227,23.168459304809517 151.131,20.23045930480953 C147.035,17.291459304809564 143.967,18.475459304809533 143.035,17.531459304809573 C142.102,16.587459304809613 140.504,13.271459304809582 136.018,11.053459304809621 C131.532,8.835459304809547 127.96199999999999,7.759459304809525 122.524,5.65445930480962 C117.08600000000001,3.549459304809602 116.07900000000001,1.1914593048095412 107.951,0.2564593048095958 C99.822,-0.6785406951904633 96.37790000000001,1.236459304809614 91.75799999999998,1.3354593048095467 C87.138,1.4354593048095694 82.0292,2.736459304809614 77.18470000000002,3.495459304809515 C72.3401,4.254459304809529 65.87380000000002,6.201459304809532 61.531800000000004,10.513459304809544 C57.18979999999999,14.825459304809556 53.354299999999995,15.064459304809589 48.57769999999999,20.23045930480953 C43.801199999999994,25.396459304809582 39.447900000000004,30.075459304809556 36.163399999999996,33.72645930480962 C32.8789,37.3764593048096 31.733800000000002,44.02945930480962 28.606899999999996,47.222459304809604 C25.480000000000004,50.41445930480961 22.52029999999999,54.347459304809604 18.8913,58.01845930480954 C15.262299999999996,61.690459304809565 12.384900000000002,70.61945930480954 12.414299999999997,76.37345930480956 C12.443700000000007,82.12745930480958 14.543900000000008,90.8574593048096 13.493799999999993,96.88745930480957 C12.443700000000007,102.91645930480956 11.305399999999992,122.40245930480955 11.874499999999998,126.5784593048096 C12.443700000000007,130.75345930480955 16.1926,140.07445930480958 16.1926,140.07445930480958 z"/>
		<path d="M186.21500000000003,143.3134593048096 C186.21500000000003,143.3134593048096 187.08100000000002,150.59545930480954 188.37400000000002,151.95045930480956 C189.66700000000003,153.30545930480957 193.25099999999998,162.10545930480953 192.692,165.9864593048096 C192.13300000000004,169.8664593048096 192.651,178.58145930480953 193.23199999999997,179.4824593048096 C194.019,180.7034593048096 197.18600000000004,174.56745930480952 198.089,173.00445930480953 C198.99199999999996,171.44145930480954 199.79200000000003,166.06045930480957 198.62900000000002,162.74745930480958 C197.76,160.27245930480956 197.54899999999998,156.8094593048096 197.54899999999998,156.8094593048096 L186.21500000000003,143.3134593048096 z"/>
		<path d="M4.317999999999998,159.50845930480955 C4.822499999999991,160.38845930480954 7.5565,171.38445930480952 7.5565,171.38445930480952 C7.5565,171.38445930480952 10.998099999999994,179.46445930480957 12.954000000000008,181.10145930480962 C14.909999999999997,182.73945930480954 23.0009,183.76045930480961 38.8622,182.18145930480955 C54.7235,180.6024593048096 64.6671,175.69145930480954 65.84980000000002,174.62345930480956 C67.0326,173.55545930480957 71.654,162.86945930480954 72.8666,158.96845930480958 C74.07920000000001,155.06745930480952 74.5627,145.48845930480957 75.56540000000001,143.3134593048096 C76.56810000000002,141.13745930480957 92.75720000000001,139.90245930480955 93.917,140.61345930480957 C95.07670000000002,141.32445930480958 104.874,166.26745930480956 111.148,168.7994593048096 C117.39100000000002,171.3184593048096 129.565,170.6844593048096 144.114,169.22545930480953 C158.663,167.7654593048096 168.383,163.4674593048096 171.102,161.12745930480958 C174.417,158.27345930480953 172.702,137.1844593048096 174.34,133.5964593048095 C174.911,132.3464593048095 177.185,132.9144593048096 179.198,133.05645930480955 C181.211,133.19745930480963 198.089,154.64945930480962 198.089,154.64945930480962 L199.709,152.49045930480952 C199.709,152.49045930480952 177.942,123.32445930480958 175.959,122.7994593048096 C173.977,122.27445930480962 172.173,122.94945930480958 170.562,122.7994593048096 C169.043,122.65845930480953 167.323,122.25945930480952 167.323,122.25945930480952 C167.323,122.25945930480952 160.189,119.81545930480956 134.938,122.7994593048096 C109.59,125.7944593048096 105.606,129.1604593048096 100.934,130.89645930480958 C96.3501,132.60045930480953 92.1251,132.83645930480952 85.2809,134.13545930480961 C77.94889999999998,135.52745930480955 68.78980000000001,135.80145930480955 59.9126,135.21545930480954 C51.03530000000001,134.62945930480953 39.01349999999999,135.97945930480955 33.46469999999999,136.83545930480955 C27.482600000000005,137.7564593048096 11.147899999999993,141.94245930480952 8.0963,143.3134593048096 C5.044700000000006,144.68345930480962 0,146.55245930480953 0,146.55245930480953 L0,153.0304593048096 C0,153.0304593048096 3.9380999999999915,158.84545930480954 4.317999999999998,159.50845930480955 z"/>
	</g>
</svg>